<svg
  xmlns="http://www.w3.org/2000/svg"
  version="1.1"
  xlink="http://www.w3.org/1999/xlink"
  xmlns:svgjs="http://svgjs.dev/svgjs"
  viewBox="0 0 846 282"
>
  <style>
    @keyframes fadeIn {
      0% {
        opacity: 0.5;
      }
      50% {
        opacity: 0.8;
      }
      100% {
        opacity: 1;
      }
    }

    @keyframes rotate {
      0% {
        transform: rotate(-3deg);
      }
      20% {
        transform: rotate(3deg);
      }
      50% {
        transform: rotate(-3deg);
      }
      100% {
        transform: rotate(3deg);
      }
    }

    .tw,
    .tw2,
    .tw3,
    .tw4,
    .tw5,
    .tw6,
    .tw7 {
      animation: fadeIn 2s linear infinite alternate;
    }
    .tw2 {
      animation-delay: 250ms;
    }
    .tw3 {
      animation-delay: 500ms;
    }
    .tw4 {
      animation-delay: 750ms;
    }
    .tw5 {
      animation-delay: 1s;
    }
    .tw6 {
      animation-delay: 1250ms;
    }
    .tw7 {
      animation-delay: 1500ms;
    }

    .hand-outer {
      /* animation: rotate 2s linear infinite alternate; */
      /* transform-origin: 50% 50%; */
      transform: translate(46%, 13%);
    }

    .hand {
      transform-origin: 6% 22%;
      animation: rotate 2s linear infinite alternate;
    }

    #lines-dots line, #line-dots circle {
      opacity: 0.8;
    }
  </style>
  <defs>
    <linearGradient
      x1="0%"
      y1="46.7143174%"
      x2="100%"
      y2="54.1835968%"
      id="linearGradient-1"
    >
      <stop stop-color="#F2709C" offset="0%"></stop>
      <stop stop-color="#FF9472" offset="100%"></stop>
    </linearGradient>
  </defs>
  <mask id="lines-dots">
    <line
    class="tw"
      x1="450.1671741888427"
      y1="5.082753417662363"
      x2="460.33268102416747"
      y2="15.248260252987087"
      stroke-linecap="round"
      stroke-width="4"
      stroke="white"
      transform="matrix(0.20625573104981873,0.9784981213109736,-0.9784981213109736,0.20625573104981873,371.29894722655956,-437.3923822783114)"
    ></line><circle
    class="tw"
      r="2.5"
      fill="white"
      cx="692.1633805867226"
      cy="68.16784328061843"></circle><line
      class="tw"
      x1="193.3059975298347"
      y1="6.1874470351278275"
      x2="205.0314645426409"
      y2="17.912914047934002"
      stroke-linecap="round"
      stroke-width="4"
      stroke="white"
      transform="matrix(-0.8748567028906646,-0.48438182192076057,0.48438182192076057,-0.8748567028906646,367.57594302956556,119.06607557932618)"
    ></line><line
    class="tw"
      x1="52.53705420663055"
      y1="30.527249687330603"
      x2="65.21700176435867"
      y2="43.207197245058715"
      stroke-linecap="round"
      stroke-width="4"
      stroke="white"
      transform="matrix(-0.787585714800088,0.616205113450736,-0.616205113450736,-0.787585714800088,127.96550909391885,29.622997613321647)"
    ></line><line
    class="tw"
      x1="76.50540377817858"
      y1="147.61097366616497"
      x2="88.4764753714203"
      y2="159.5820452594067"
      stroke-linecap="round"
      stroke-width="4"
      stroke="white"
      transform="matrix(-0.1358343269995782,0.9907315658686624,-0.9907315658686624,-0.1358343269995782,245.86895411324483,92.73381240690004)"
    ></line><circle
    class="tw2"
      r="2.5"
      fill="white"
      cx="678.375981965032"
      cy="20.73891666744769"></circle><line
      class="tw2"
      x1="597.7935034038817"
      y1="78.67174039200074"
      x2="609.5414815353292"
      y2="90.41971852344824"
      stroke-linecap="round"
      stroke-width="4"
      stroke="white"
      transform="matrix(0.8478967904391336,-0.5301613271099807,0.5301613271099807,0.8478967904391336,46.99689121953293,332.90084515499495)"
    ></line><circle
    class="tw2"
      r="2.5"
      fill="white"
      cx="330.71384429698116"
      cy="196.99406292436007"></circle><circle
      class="tw2"
      r="2.5"
      fill="white"
      cx="429.7932044192415"
      cy="13.376851021224601"></circle><line
      class="tw2"
      x1="115.33260797244894"
      y1="185.29169992353945"
      x2="129.59434198836735"
      y2="199.55343393945788"
      stroke-linecap="round"
      stroke-width="4"
      stroke="white"
      transform="matrix(-0.9754374209390215,-0.2202767301187986,0.2202767301187986,-0.9754374209390215,199.53272295319613,407.09459849115655)"
    ></line><line
    class="tw2"
      x1="254.0963377788023"
      y1="9.129203954787968"
      x2="268.21864458695154"
      y2="23.25151076293718"
      stroke-linecap="round"
      stroke-width="4"
      stroke="white"
      transform="matrix(-0.9142300825479892,-0.40519545427397974,0.40519545427397974,-0.9142300825479892,493.35528597587745,136.8119011594138)"
    ></line><line
    class="tw3"
      x1="351.1256893219046"
      y1="188.64411415902902"
      x2="363.3485170148314"
      y2="200.8669418519558"
      stroke-linecap="round"
      stroke-width="4"
      stroke="white"
      transform="matrix(0.990637304503535,0.13652007517566966,-0.13652007517566966,0.990637304503535,29.9327420220028,-46.94659987487023)"
    ></line><line
    class="tw3"
      x1="13.020651365039754"
      y1="111.4202785378511"
      x2="23.23581777405144"
      y2="121.63544494686279"
      stroke-linecap="round"
      stroke-width="4"
      stroke="white"
      transform="matrix(0.9333822305024171,0.35888384162892145,-0.35888384162892145,0.9333822305024171,43.02762950808465,1.2568958887672892)"
    ></line><line
    class="tw3"
      x1="677.1708866717386"
      y1="150.08317225031476"
      x2="687.9526369209527"
      y2="160.86492249952892"
      stroke-linecap="round"
      stroke-width="4"
      stroke="white"
      transform="matrix(0.600831384045019,0.7993757864399864,-0.7993757864399864,0.600831384045019,396.7394289995484,-483.5629874265553)"
    ></line><circle
    class="tw3"
      r="2.5"
      fill="white"
      cx="719.635538966567"
      cy="156.1179152944325"></circle><circle
      class="tw3"
      r="2.5"
      fill="white"
      cx="47.807799821933344"
      cy="123.79874656613471"></circle><line
      class="tw4"
      x1="514.8837367275595"
      y1="193.34772843074765"
      x2="525.9852511070611"
      y2="204.44924281024922"
      stroke-linecap="round"
      stroke-width="4"
      stroke="white"
      transform="matrix(0.4702649124525927,0.8825253039522183,-0.8825253039522183,0.4702649124525927,451.22535531073856,-353.93308706166556)"
    ></line><line
    class="tw4"
      x1="84.04294740597577"
      y1="6.6316234804175345"
      x2="97.30619436681083"
      y2="19.894870441252603"
      stroke-linecap="round"
      stroke-width="4"
      stroke="white"
      transform="matrix(0.02984421922560672,0.9995545620819375,-0.9995545620819375,0.02984421922560672,101.22579924623611,-77.76676633680798)"
    ></line><line
    class="tw4"
      x1="428.72825326138616"
      y1="192.76628346158878"
      x2="440.217397620327"
      y2="204.25542782052958"
      stroke-linecap="round"
      stroke-width="4"
      stroke="white"
      transform="matrix(-0.4938781631908449,0.8695311149828033,-0.8695311149828033,-0.4938781631908449,821.6608309181865,-81.23660529301105)"
    ></line><line
    class="tw4"
      x1="546.1638664361245"
      y1="19.85011148052341"
      x2="558.116641043014"
      y2="31.80288608741293"
      stroke-linecap="round"
      stroke-width="4"
      stroke="white"
      transform="matrix(-0.12304559474854017,-0.992401018546927,0.992401018546927,-0.12304559474854017,594.4484414178721,576.9488911162376)"
    ></line><circle
    class="tw4"
      r="2.5"
      fill="white"
      cx="663.4838375875028"
      cy="107.07926706865977"></circle><line
      class="tw4"
      x1="34.34812351729725"
      y1="190.05589730454156"
      x2="47.64419198093621"
      y2="203.35196576818052"
      stroke-linecap="round"
      stroke-width="4"
      stroke="white"
      transform="matrix(-0.9859170706162225,0.16723495408414668,-0.16723495408414668,-0.9859170706162225,114.31073945253775,383.78169429016714)"
    ></line><line
    class="tw4"
      x1="630.8225861143837"
      y1="13.131760649240466"
      x2="641.4185275904551"
      y2="23.727702125311954"
      stroke-linecap="round"
      stroke-width="4"
      stroke="white"
      transform="matrix(0.679391199282392,-0.7337762590446989,0.7337762590446989,0.679391199282392,190.42254517363745,472.67888762060653)"
    ></line><circle
    class="tw5"
      r="2.5"
      fill="white"
      cx="822.4162903559284"
      cy="170.69851671796607"></circle><line
      class="tw5"
      x1="284.27159485630347"
      y1="173.1390707601118"
      x2="295.77264660751433"
      y2="184.64012251132266"
      stroke-linecap="round"
      stroke-width="4"
      stroke="white"
      transform="matrix(0.88090166960521,0.4732993222969513,-0.4732993222969513,0.88090166960521,119.20947498862364,-115.96182323589312)"
    ></line><line
    class="tw5"
      x1="28.391105623763337"
      y1="163.83965065436732"
      x2="41.00441277477509"
      y2="176.4529578053791"
      stroke-linecap="round"
      stroke-width="4"
      stroke="white"
      transform="matrix(-0.23467357694833105,0.9720742318785515,-0.9720742318785515,-0.23467357694833105,208.23524210591768,176.34634435439816)"
    ></line><line
    class="tw5"
      x1="747.3837037436488"
      y1="34.50494450783912"
      x2="762.5148184885907"
      y2="49.63605925278092"
      stroke-linecap="round"
      stroke-width="4"
      stroke="white"
      transform="matrix(-0.9778639882078941,0.20924153642656962,-0.20924153642656962,-0.9778639882078941,1501.9898897465516,-74.75701768483464)"
    ></line><line
    class="tw5"
      x1="177.19604744509036"
      y1="189.007191938567"
      x2="191.19125281937903"
      y2="203.00239731285566"
      stroke-linecap="round"
      stroke-width="4"
      stroke="white"
      transform="matrix(0.9002356674796904,-0.4354029662248482,0.4354029662248482,0.9002356674796904,-66.96511103268858,99.75274843232593)"
    ></line><line
    class="tw5"
      x1="590.1328662891921"
      y1="100.52580404319698"
      x2="601.3116482515128"
      y2="111.70458600551763"
      stroke-linecap="round"
      stroke-width="4"
      stroke="white"
      transform="matrix(0.14676494527809647,-0.9891713960874108,0.9891713960874108,0.14676494527809647,403.3249979029024,679.8126243916599)"
    ></line><circle
    class="tw5"
      r="2.5"
      fill="white"
      cx="553.4279476706416"
      cy="114.20867345151476"></circle><line
      class="tw6"
      x1="318.6056844035017"
      y1="6.681721820655896"
      x2="331.96912804481354"
      y2="20.045165461967688"
      stroke-linecap="round"
      stroke-width="4"
      stroke="white"
      transform="matrix(0.36388124338810895,0.931445350361643,-0.931445350361643,0.36388124338810895,219.36873361940928,-294.48669831490685)"
    ></line><line
    class="tw6"
      x1="473.091245286977"
      y1="7.214651443551681"
      x2="485.4711602331698"
      y2="19.594566389744497"
      stroke-linecap="round"
      stroke-width="4"
      stroke="white"
      transform="matrix(0.24114229262476714,0.970489770532215,-0.970489770532215,0.24114229262476714,376.7152719350089,-454.9653148990906)"
    ></line><circle
    class="tw6"
      r="2.5"
      fill="white"
      cx="170.02569987121623"
      cy="13.116382681226238"></circle><line
      class="tw6"
      x1="52.107556466191724"
      y1="75.0209618975961"
      x2="63.739671461859885"
      y2="86.65307689326426"
      stroke-linecap="round"
      stroke-width="4"
      stroke="white"
      transform="matrix(-0.958117899961909,-0.2863740382307399,0.2863740382307399,-0.958117899961909,90.27163854571742,174.8762364006496)"
    ></line><circle
    class="tw6"
      r="2.5"
      fill="white"
      cx="216.4091748199142"
      cy="28.86295485906963"></circle><line
      class="tw6"
      x1="523.2951112968345"
      y1="109.33259728746242"
      x2="534.4200558036147"
      y2="120.45754179424247"
      stroke-linecap="round"
      stroke-width="4"
      stroke="white"
      transform="matrix(0.6708677136672254,-0.7415770430366015,0.7415770430366015,0.6708677136672254,88.86055700816485,430.00431304628927)"
    ></line><line
    class="tw6"
      x1="237.30926163273614"
      y1="143.494419412697"
      x2="251.25802826718547"
      y2="157.44318604714633"
      stroke-linecap="round"
      stroke-width="4"
      stroke="white"
      transform="matrix(-0.6468415487053826,-0.7626244232047792,0.7626244232047792,-0.6468415487053826,287.5452728848807,434.0949515794405)"
    ></line><circle
    class="tw7"
      r="2.5"
      fill="white"
      cx="533.8560303193956"
      cy="10.34002133449479"></circle><line
      class="tw7"
      x1="696.1226123632584"
      y1="164.6564996647112"
      x2="707.0419291679793"
      y2="175.57581646943214"
      stroke-linecap="round"
      stroke-width="4"
      stroke="white"
      transform="matrix(0.7080264284490511,-0.7061859362927592,0.7061859362927592,0.7080264284490511,84.70984469756513,545.1169581261984)"
    ></line><circle
    class="tw7"
      r="2.5"
      fill="white"
      cx="492.01824576001707"
      cy="73.5048070079416"></circle><line
      class="tw7"
      x1="67.57289386921362"
      y1="123.59333886903549"
      x2="80.18939605129616"
      y2="136.20984105111802"
      stroke-linecap="round"
      stroke-width="4"
      stroke="white"
      transform="matrix(-0.1376559420988149,-0.9904801066174361,0.9904801066174361,-0.1376559420988149,-44.613615006455916,220.96111882614343)"
    ></line><line
    class="tw7"
      x1="263.14543041816296"
      y1="158.3511860223127"
      x2="275.9541229324376"
      y2="171.15987853658734"
      stroke-linecap="round"
      stroke-width="4"
      stroke="white"
      transform="matrix(0.8587945071476186,0.5123202069927351,-0.5123202069927351,0.8587945071476186,122.46949661437947,-114.83141009864869)"
    ></line><circle
    class="tw7"
      r="2.5"
      fill="white"
      cx="234.68009948841322"
      cy="13.14313436690762"></circle><line
      class="tw7"
      x1="517.1210595497369"
      y1="87.33335661301533"
      x2="528.4509776220207"
      y2="98.66327468529917"
      stroke-linecap="round"
      stroke-width="4"
      stroke="white"
      transform="matrix(-0.11608994613200853,-0.9932387046461023,0.9932387046461023,-0.11608994613200853,491.1066819428203,623.0457875294883)"
    ></line><circle
    class="tw7"
      r="2.5"
      fill="white"
      cx="300.2455974689497"
      cy="199.1148659694086"></circle><circle
      r="2.5"
      fill="white"
      cx="613.504881187639"
      cy="39.66581758155095"></circle><line
      x1="51.30673409208255"
      y1="5.536379474589387"
      x2="62.37949304126133"
      y2="16.609138423768158"
      stroke-linecap="round"
      stroke-width="4"
      stroke="white"
      transform="matrix(-0.7962407454821531,0.6049798965536171,-0.6049798965536171,-0.7962407454821531,108.80271568492284,-14.499600590735426)"
    ></line><line
      x1="775.2789957352979"
      y1="59.46439204271097"
      x2="788.5618286280924"
      y2="72.74722493550532"
      stroke-linecap="round"
      stroke-width="4"
      stroke="white"
      transform="matrix(-0.9645444068630352,0.2639206077388342,-0.2639206077388342,-0.9645444068630352,1553.5640534750446,-76.49711397731056)"
    ></line><line
      x1="179.62147088119474"
      y1="69.3828881811118"
      x2="195.46660402624263"
      y2="85.22802132615972"
      stroke-linecap="round"
      stroke-width="4"
      stroke="white"
      transform="matrix(-0.999882433767869,0.015333578918277465,-0.015333578918277465,-0.999882433767869,376.2513941683152,151.72609870739552)"
    ></line><line
      x1="819.0755769521111"
      y1="104.59007175360932"
      x2="833.0251923173703"
      y2="118.53968711886864"
      stroke-linecap="round"
      stroke-width="4"
      stroke="white"
      transform="matrix(-0.1439563768418607,-0.9895840346158401,0.9895840346158401,-0.1439563768418607,834.5627805269626,945.0716286428486)"
    ></line><line
      x1="398.74518387199413"
      y1="5.311182464101078"
      x2="409.3675488001963"
      y2="15.933547392303234"
      stroke-linecap="round"
      stroke-width="4"
      stroke="white"
      transform="matrix(0.5869838158758344,0.8095986659449511,-0.8095986659449511,0.5869838158758344,175.4816713601814,-322.73628599855044)"
    ></line><circle
      r="2.5"
      fill="white"
      cx="115.58637639736185"
      cy="159.67628038036676"></circle><line
      x1="659.2071905624616"
      y1="156.46726113927494"
      x2="668.7724490686667"
      y2="166.03251964547988"
      stroke-linecap="round"
      stroke-width="4"
      stroke="white"
      transform="matrix(0.2910796602554703,-0.9566988195798927,0.9566988195798927,0.2910796602554703,316.44832611949425,749.551617543747)"
    ></line><line
      x1="780.1760147573935"
      y1="33.01304456412798"
      x2="793.691879315364"
      y2="46.52890912209844"
      stroke-linecap="round"
      stroke-width="4"
      stroke="white"
      transform="matrix(0.18424934225308823,0.9828795347748901,-0.9828795347748901,0.18424934225308823,681.0319748327363,-741.0180838014509)"
    ></line><line
      x1="497.7693371626972"
      y1="47.73244046532352"
      x2="509.0107615290798"
      y2="58.97386483170612"
      stroke-linecap="round"
      stroke-width="4"
      stroke="white"
      transform="matrix(-0.8841601537718695,0.4671839278936124,-0.4671839278936124,-0.8841601537718695,973.3932293481524,-134.64986030014902)"
    ></line><line
      x1="26.70266020972539"
      y1="74.31696902551514"
      x2="38.216164520622286"
      y2="85.83047333641204"
      stroke-linecap="round"
      stroke-width="4"
      stroke="white"
      transform="matrix(-0.996180955751536,-0.08731267604395365,0.08731267604395365,-0.996180955751536,57.803408291021455,162.6757586794981)"
    ></line><line
      x1="47.64565825068129"
      y1="143.2865451694295"
      x2="60.01934307301749"
      y2="155.6602299917657"
      stroke-linecap="round"
      stroke-width="4"
      stroke="white"
      transform="matrix(-0.6948223408470376,-0.7191814198516554,0.7191814198516554,-0.6948223408470376,-16.261959455601158,292.0461725965856)"
    ></line><circle
      r="2.5"
      fill="white"
      cx="786.0954062339645"
      cy="164.41024861352372"></circle><line
      x1="742.4572060347703"
      y1="187.3080270546346"
      x2="754.25369372165"
      y2="199.10451474151446"
      stroke-linecap="round"
      stroke-width="4"
      stroke="white"
      transform="matrix(-0.43310421269122135,-0.9013438527826755,0.9013438527826755,-0.43310421269122135,898.326092595347,951.4103184883052)"
    ></line><circle
      r="2.5"
      fill="white"
      cx="208.24281648500371"
      cy="51.63261459507791"></circle><line
      x1="204.72766105587863"
      y1="92.06005043040417"
      x2="218.53366835895338"
      y2="105.8660577334789"
      stroke-linecap="round"
      stroke-width="4"
      stroke="white"
      transform="matrix(0.3335597039625108,0.9427289769029285,-0.9427289769029285,0.3335597039625108,234.33453964257419,-133.55738909357387)"
    ></line><line
      x1="109.37849695145384"
      y1="93.21214647491345"
      x2="122.59213562453955"
      y2="106.42578514799916"
      stroke-linecap="round"
      stroke-width="4"
      stroke="white"
      transform="matrix(0.9364017045653561,0.3509299754753013,-0.3509299754753013,0.9364017045653561,42.40593548810128,-34.35440710836269)"
    ></line><line
      x1="568.5786003663297"
      y1="74.07006976579501"
      x2="582.4809919597612"
      y2="87.9724613592264"
      stroke-linecap="round"
      stroke-width="4"
      stroke="white"
      transform="matrix(0.2336256541832581,-0.9723266188413463,0.9723266188413463,0.2336256541832581,362.29215515884766,621.6955772393135)"
    ></line><circle
      r="2.5"
      fill="white"
      cx="215.85466972644363"
      cy="165.80241027150973"></circle><line
      x1="3.906589149919122"
      y1="129.72828685833693"
      x2="14.143859872292566"
      y2="139.9655575807104"
      stroke-linecap="round"
      stroke-width="4"
      stroke="white"
      transform="matrix(0.5834127431415493,0.8121758252620258,-0.8121758252620258,0.5834127431415493,113.27920513916482,48.845440979738456)"
    ></line><circle
      r="2.5"
      fill="white"
      cx="827.7006015271745"
      cy="142.5021285212241"></circle><circle
      r="2.5"
      fill="white"
      cx="351.88626312443625"
      cy="30.965148714702043"></circle><circle
      r="2.5"
      fill="white"
      cx="668.5709030942214"
      cy="49.93192575293917"></circle><circle
      r="2.5"
      fill="white"
      cx="721.3312088418018"
      cy="181.69210968565514"></circle><line
      x1="159.36851226162247"
      y1="95.2016247761746"
      x2="173.0614299223604"
      y2="108.89454243691252"
      stroke-linecap="round"
      stroke-width="4"
      stroke="white"
      transform="matrix(0.948198924251129,-0.3176771947260328,0.3176771947260328,0.948198924251129,-23.808233492468304,58.08890683208888)"
    ></line><line
      x1="577.0483596941331"
      y1="196.35702491501172"
      x2="586.1436764174587"
      y2="205.45234163833726"
      stroke-linecap="round"
      stroke-width="4"
      stroke="white"
      transform="matrix(0.31882366203311163,0.9478140495518075,-0.9478140495518075,0.31882366203311163,586.5897230975521,-414.3933495584906)"
    ></line><circle
      r="2.5"
      fill="white"
      cx="15.371434000620578"
      cy="11.944258525655417"></circle><circle
      r="2.5"
      fill="white"
      cx="152.32342000988498"
      cy="195.09887623570702"></circle><circle
      r="2.5"
      fill="white"
      cx="182.44500466773036"
      cy="41.19369926732937"></circle><line
      x1="757.6550556777969"
      y1="6.735419449435802"
      x2="771.1258945766684"
      y2="20.206258348307404"
      stroke-linecap="round"
      stroke-width="4"
      stroke="white"
      transform="matrix(-0.875554566545897,-0.48311924097537906,0.48311924097537906,-0.875554566545897,1427.148019632329,394.5570384864488)"
    ></line><line
      x1="223.07509278139878"
      y1="113.96006663225027"
      x2="236.65267357854145"
      y2="127.53764742939292"
      stroke-linecap="round"
      stroke-width="4"
      stroke="white"
      transform="matrix(0.19446949962184137,0.9809085654212785,-0.9809085654212785,0.19446949962184137,303.6059599306893,-128.208563532284)"
    ></line><line
      x1="636.4801711521349"
      y1="40.47022079330364"
      x2="649.1816043643831"
      y2="53.17165400555183"
      stroke-linecap="round"
      stroke-width="4"
      stroke="white"
      transform="matrix(-0.9999175398463197,-0.012841865428500097,0.012841865428500097,-0.9999175398463197,1285.0074670451522,101.89316290509296)"
    ></line><circle
      r="2.5"
      fill="white"
      cx="12.179814931393054"
      cy="41.812189645048434"></circle><line
      x1="795.0221916455142"
      y1="137.53009396703035"
      x2="807.9587501762038"
      y2="150.46665249771988"
      stroke-linecap="round"
      stroke-width="4"
      stroke="white"
      transform="matrix(-0.48187784236471465,-0.8762384065070004,0.8762384065070004,-0.48187784236471465,1061.5340743824809,915.6847408836428)"
    ></line><line
      x1="720.5419930534903"
      y1="44.46954135636203"
      x2="734.7991465617005"
      y2="58.726694864572266"
      stroke-linecap="round"
      stroke-width="4"
      stroke="white"
      transform="matrix(-0.38052855157144283,-0.9247691719769533,0.9247691719769533,-0.38052855157144283,956.8536393066349,744.1599786503136)"
    ></line><circle
      r="2.5"
      fill="white"
      cx="190.97256184586044"
      cy="113.16808599461149"></circle><line
      x1="741.0716883758366"
      y1="128.33939087425935"
      x2="753.2251774683407"
      y2="140.4928799667634"
      stroke-linecap="round"
      stroke-width="4"
      stroke="white"
      transform="matrix(0.9865258127912759,-0.1636056866264506,0.1636056866264506,0.9865258127912759,-11.924025333524128,124.04888122944762)"
    ></line><line
      x1="286.530460312484"
      y1="5.514593731824784"
      x2="297.5596477761336"
      y2="16.543781195474352"
      stroke-linecap="round"
      stroke-width="4"
      stroke="white"
      transform="matrix(0.6414134328391788,-0.7671954172005072,0.7671954172005072,0.6414134328391788,96.26189299328138,228.01054958592684)"
    ></line><line
      x1="734.2562288695918"
      y1="157.35622040255947"
      x2="744.6874473975246"
      y2="167.7874389304921"
      stroke-linecap="round"
      stroke-width="4"
      stroke="white"
      transform="matrix(0.11065915303646885,0.9938584164000682,-0.9938584164000682,0.11065915303646885,819.2158878814398,-590.348534546494)"
    ></line><circle
      r="2.5"
      fill="white"
      cx="826.4417544677661"
      cy="16.79984298604152"></circle><circle
      r="2.5"
      fill="white"
      cx="629.0350586216283"
      cy="96.77661453818659"></circle><line
      x1="374.28115752251"
      y1="9.795686192329335"
      x2="386.3753770878598"
      y2="21.889905757679145"
      stroke-linecap="round"
      stroke-width="4"
      stroke="white"
      transform="matrix(0.5904154338756831,-0.8070995077692644,0.8070995077692644,0.5904154338756831,142.98987357958754,313.4517179805035)"
    ></line><line
      x1="210.53739843692574"
      y1="189.73449051273184"
      x2="224.04773809510448"
      y2="203.24483017091063"
      stroke-linecap="round"
      stroke-width="4"
      stroke="white"
      transform="matrix(-0.32701159049149475,0.9450203276566187,-0.9450203276566187,-0.32701159049149475,474.036486525637,55.398161502799894)"
    ></line><line
      x1="28.012527054094708"
      y1="20.725850794818303"
      x2="40.856806015623825"
      y2="33.57012975634742"
      stroke-linecap="round"
      stroke-width="4"
      stroke="white"
      transform="matrix(0.08020409658055952,-0.9967784622932502,0.9967784622932502,0.08020409658055952,4.612334229822917,59.294345203860075)"
    ></line><circle
      r="2.5"
      fill="white"
      cx="263.65352049587295"
      cy="198.21776264132762"></circle><circle
      r="2.5"
      fill="white"
      cx="667.6077717779923"
      cy="80.07846544758067"></circle><line
      x1="569.8880810362186"
      y1="103.67133903687008"
      x2="580.2924931945342"
      y2="114.07575119518563"
      stroke-linecap="round"
      stroke-width="4"
      stroke="white"
      transform="matrix(-0.9633163561517929,0.2683683997240213,-0.2683683997240213,-0.9633163561517929,1158.3023547838102,59.41715906863004)"
    ></line><line
      x1="515.0105872853316"
      y1="27.149185063822454"
      x2="526.3840084990328"
      y2="38.52260627752365"
      stroke-linecap="round"
      stroke-width="4"
      stroke="white"
      transform="matrix(0.87726406106936,-0.4800080907194109,0.4800080907194109,0.87726406106936,48.14677601628898,253.96905943368398)"
    ></line><line
      x1="141.4742618475883"
      y1="19.2813216052073"
      x2="154.4984684187524"
      y2="32.30552817637141"
      stroke-linecap="round"
      stroke-width="4"
      stroke="white"
      transform="matrix(0.916523721936495,0.3999803334261253,-0.3999803334261253,0.916523721936495,22.670213634765673,-57.038497039336846)"
    ></line><circle
      r="2.5"
      fill="white"
      cx="242.67646637611236"
      cy="182.4299609302831"></circle><line
      x1="609.454299609668"
      y1="110.9521072131549"
      x2="621.256342715841"
      y2="122.75415031932778"
      stroke-linecap="round"
      stroke-width="4"
      stroke="white"
      transform="matrix(0.9095131706595911,-0.41567510437448313,0.41567510437448313,0.9095131706595911,7.1086143264701604,266.36155453609814)"
    ></line><line
      x1="545.089040667732"
      y1="87.88852933702493"
      x2="555.7125988230464"
      y2="98.51208749233935"
      stroke-linecap="round"
      stroke-width="4"
      stroke="white"
      transform="matrix(-0.9992359048162633,0.039084607277334205,-0.039084607277334205,-0.9992359048162633,1104.0237744838696,164.81719816093562)"
    ></line><circle
      r="2.5"
      fill="white"
      cx="280.466337201228"
      cy="138.97339644111503"></circle><line
      x1="695.764442907058"
      y1="136.649005290882"
      x2="706.833485501801"
      y2="147.71804788562488"
      stroke-linecap="round"
      stroke-width="4"
      stroke="white"
      transform="matrix(-0.18347500985043372,-0.9830243744487638,0.9830243744487638,-0.18347500985043372,690.1999473032436,857.6646405679164)"
    ></line><line
      x1="399.8755275120227"
      y1="187.18265734050786"
      x2="413.6157965733819"
      y2="200.92292640186704"
      stroke-linecap="round"
      stroke-width="4"
      stroke="white"
      transform="matrix(-0.17876286226622856,-0.9838921887454872,0.9838921887454872,-0.17876286226622856,288.5296384677566,628.9360976147057)"
    ></line><line
      x1="694.3218493513291"
      y1="193.78922506671495"
      x2="705.1290326401859"
      y2="204.59640835557167"
      stroke-linecap="round"
      stroke-width="4"
      stroke="white"
      transform="matrix(-0.9428592465496232,-0.33319129819951326,0.33319129819951326,-0.9428592465496232,1293.0987147117507,620.1460332123547)"
    ></line><line
      x1="743.347312820971"
      y1="66.22670933297826"
      x2="759.2515187562663"
      y2="82.1309152682735"
      stroke-linecap="round"
      stroke-width="4"
      stroke="white"
      transform="matrix(-0.40587129608739414,-0.9139302440626084,0.9139302440626084,-0.40587129608739414,988.436014380083,790.9211112051512)"
    ></line><line
      x1="61.960091857587855"
      y1="191.64843310012213"
      x2="74.19446979083978"
      y2="203.88281103337403"
      stroke-linecap="round"
      stroke-width="4"
      stroke="white"
      transform="matrix(0.8308199591211262,-0.5565412792650428,0.5565412792650428,0.8308199591211262,-98.54741658860493,71.34581410833584)"
    ></line><line
      x1="32.69438494942078"
      y1="49.91577410189182"
      x2="45.36655048862001"
      y2="62.58793964109105"
      stroke-linecap="round"
      stroke-width="4"
      stroke="white"
      transform="matrix(-0.29293641334090315,-0.9561319248612963,0.9561319248612963,-0.29293641334090315,-3.320283744560676,110.0483516975385)"
    ></line><line
      x1="755.8263371810636"
      y1="158.49418475363748"
      x2="767.2743058316267"
      y2="169.94215340420058"
      stroke-linecap="round"
      stroke-width="4"
      stroke="white"
      transform="matrix(0.8358505816682072,-0.5489570157352209,0.5489570157352209,0.8358505816682072,34.85932600683475,445.01471002550966)"
    ></line><line
      x1="733.6105853415393"
      y1="96.63241131483193"
      x2="748.9209438530256"
      y2="111.94276982631837"
      stroke-linecap="round"
      stroke-width="4"
      stroke="white"
      transform="matrix(-0.9999795032084672,0.0064025903310515365,-0.0064025903310515365,-0.9999795032084672,1483.1840723212222,203.82702139239507)"
    ></line><circle
      r="2.5"
      fill="white"
      cx="520.4672296782576"
      cy="70.04971682624613"></circle><line
      x1="64.20558962404533"
      y1="54.38374110565687"
      x2="76.39813976121312"
      y2="66.57629124282465"
      stroke-linecap="round"
      stroke-width="4"
      stroke="white"
      transform="matrix(-0.5353015395641919,-0.8446610336343248,0.8446610336343248,-0.5353015395641919,56.84944756438015,152.2363084049827)"
    ></line><line
      x1="458.02752533584516"
      y1="191.33009327736377"
      x2="470.3465041043291"
      y2="203.6490720458477"
      stroke-linecap="round"
      stroke-width="4"
      stroke="white"
      transform="matrix(-0.48171255109621725,0.8763292863509551,-0.8763292863509551,-0.48171255109621725,860.8576291723869,-114.15787460892238)"
    ></line><circle
      r="2.5"
      fill="white"
      cx="12.300087269562798"
      cy="181.3682045104702"></circle><line
      x1="106.60748418735858"
      y1="32.68935819693598"
      x2="120.4507541503128"
      y2="46.53262815989019"
      stroke-linecap="round"
      stroke-width="4"
      stroke="white"
      transform="matrix(-0.29223587836971,-0.956346271699474,0.956346271699474,-0.29223587836971,108.82457405167804,159.7598939290052)"
    ></line><line
      x1="683.7820673889759"
      y1="90.08049579489648"
      x2="695.8375794990424"
      y2="102.13600790496298"
      stroke-linecap="round"
      stroke-width="4"
      stroke="white"
      transform="matrix(-0.9457582344485209,-0.32487130062967495,0.32487130062967495,-0.9457582344485209,1310.9803133666037,411.102837213739)"
    ></line><line
      x1="678.5709989851906"
      y1="176.11851481751057"
      x2="688.3774093058252"
      y2="185.92492513814523"
      stroke-linecap="round"
      stroke-width="4"
      stroke="white"
      transform="matrix(-0.058078884469819035,0.9983119969121584,-0.9983119969121584,-0.058078884469819035,903.8857558532832,-490.785215098903)"
    ></line><line
      x1="589.1408302617042"
      y1="8.567015749811484"
      x2="600.1702143313207"
      y2="19.59639981942812"
      stroke-linecap="round"
      stroke-width="4"
      stroke="white"
      transform="matrix(-0.17903998625810233,0.9838417979130072,-0.9838417979130072,-0.17903998625810233,714.9768056760344,-568.4440573621081)"
    ></line><circle
      r="2.5"
      fill="white"
      cx="60.67645392966721"
      cy="173.81103776880906"></circle><circle
      r="2.5"
      fill="white"
      cx="772.6146480292889"
      cy="195.47915287839487"></circle><line
      x1="9.791012127851264"
      y1="196.20679943754166"
      x2="18.986479169490156"
      y2="205.40226647918055"
      stroke-linecap="round"
      stroke-width="4"
      stroke="white"
      transform="matrix(0.6704634001579006,-0.7419426049558732,0.7419426049558732,0.6704634001579006,-144.24382151487632,76.84806684361718)"
    ></line><line
      x1="563.8062355042936"
      y1="5.18460484004901"
      x2="574.1754451843916"
      y2="15.55381452014703"
      stroke-linecap="round"
      stroke-width="4"
      stroke="white"
      transform="matrix(0.5120715333001592,0.858942806468291,-0.858942806468291,0.5120715333001592,286.5333736808834,-483.67113418914033)"
    ></line><line
      x1="623.3726996308587"
      y1="158.48954268929901"
      x2="633.0531249273017"
      y2="168.1699679857419"
      stroke-linecap="round"
      stroke-width="4"
      stroke="white"
      transform="matrix(-0.8817373319715608,0.4717406887344715,-0.4717406887344715,-0.8817373319715608,1259.180941098547,10.990120772639955)"
    ></line><circle
      r="2.5"
      fill="white"
      cx="825.8467505853042"
      cy="197.3639938428469"></circle><line
      x1="5.510105148845596"
      y1="89.6489662803062"
      x2="16.897567179260996"
      y2="101.0364283107216"
      stroke-linecap="round"
      stroke-width="4"
      stroke="white"
      transform="matrix(-0.2484337049272138,0.9686489014375322,-0.9686489014375322,-0.2484337049272138,106.34084588568173,108.17645277218205)"
    ></line><line
      x1="611.3072905287745"
      y1="6.438650062806204"
      x2="621.5481988836273"
      y2="16.679558417658857"
      stroke-linecap="round"
      stroke-width="4"
      stroke="white"
      transform="matrix(0.6836157741349271,0.7298420879573226,-0.7298420879573226,0.6836157741349271,203.46434177056096,-446.2378088441642)"
    ></line><line
      x1="822.137672635466"
      y1="72.62680396202221"
      x2="834.0458908784886"
      y2="84.53502220504491"
      stroke-linecap="round"
      stroke-width="4"
      stroke="white"
      transform="matrix(-0.979388814630385,0.20198403347019633,-0.20198403347019633,-0.979388814630385,1654.9877293223735,-11.719147455324702)"
    ></line><circle
      r="2.5"
      fill="white"
      cx="137.13428840840692"
      cy="58.00387954047033"></circle><circle
      r="2.5"
      fill="white"
      cx="537.5979576107064"
      cy="48.35422533617751"></circle><circle
      r="2.5"
      fill="white"
      cx="702.5192427113013"
      cy="12.882266589655114"></circle><line
      x1="790.8746305675205"
      y1="107.95805273918468"
      x2="805.0261111711205"
      y2="122.10953334278476"
      stroke-linecap="round"
      stroke-width="4"
      stroke="white"
      transform="matrix(-0.2707174427742669,-0.9626588524382672,0.9626588524382672,-0.2707174427742669,903.2311638123549,914.3294446470206)"
    ></line><circle
      r="2.5"
      fill="white"
      cx="633.6477523225665"
      cy="192.72569991884092"></circle><line
      x1="489.23608303857253"
      y1="26.322913167083076"
      x2="500.81959123770133"
      y2="37.9064213662119"
      stroke-linecap="round"
      stroke-width="4"
      stroke="white"
      transform="matrix(0.2607618750408396,0.9654031512923426,-0.9654031512923426,0.2607618750408396,396.9470479394636,-454.16104214387985)"
    ></line><line
      x1="104.90954658965951"
      y1="62.3509146439937"
      x2="118.59350781288357"
      y2="76.03487586721775"
      stroke-linecap="round"
      stroke-width="4"
      stroke="white"
      transform="matrix(-0.9911439048794652,-0.13279216776709973,0.13279216776709973,-0.9911439048794652,213.32509522882393,152.6127364858392)"
    ></line><circle
      r="2.5"
      fill="white"
      cx="181.8813269632573"
      cy="168.10308750444116"></circle><circle
      r="2.5"
      fill="white"
      cx="67.11709255921805"
      cy="103.59361113308901"></circle><line
      x1="350.46962343666434"
      y1="4.840103897800283"
      x2="360.14983123226494"
      y2="14.52031169340085"
      stroke-linecap="round"
      stroke-width="4"
      stroke="white"
      transform="matrix(-0.7558085013496705,0.6547927223843933,-0.6547927223843933,-0.7558085013496705,630.1943884445539,-215.65763971292998)"
    ></line><line
      x1="117.33676477774307"
      y1="6.305502339239761"
      x2="129.9477694562226"
      y2="18.916507017719283"
      stroke-linecap="round"
      stroke-width="4"
      stroke="white"
      transform="matrix(-0.06968669777153849,-0.9975689270189295,0.9975689270189295,-0.06968669777153849,119.67813946297544,136.83150657090223)"
    ></line><line
      x1="85.03315625528344"
      y1="170.5912143973906"
      x2="96.61884332088087"
      y2="182.176901462988"
      stroke-linecap="round"
      stroke-width="4"
      stroke="white"
      transform="matrix(0.9844157783317471,-0.17585668986848504,0.17585668986848504,0.9844157783317471,-29.602863729224836,18.721167980434586)"
    ></line><line
      x1="124.00764024877385"
      y1="122.35582048464651"
      x2="136.67623619219682"
      y2="135.0244164280695"
      stroke-linecap="round"
      stroke-width="4"
      stroke="white"
      transform="matrix(-0.9988221311268566,-0.04852164847987359,0.04852164847987359,-0.9988221311268566,254.28609371174215,263.55305938042517)"
    ></line><line
      x1="5.608445730301069"
      y1="62.4842388611585"
      x2="17.642619866646434"
      y2="74.51841299750387"
      stroke-linecap="round"
      stroke-width="4"
      stroke="white"
      transform="matrix(-0.4143896005365229,0.9100995873898532,-0.9100995873898532,-0.4143896005365229,78.7860588834607,86.3071674170808)"
    ></line><line
      x1="148.84827227102647"
      y1="127.62366429785271"
      x2="161.77871616391724"
      y2="140.55410819074348"
      stroke-linecap="round"
      stroke-width="4"
      stroke="white"
      transform="matrix(-0.10290994190493828,0.9946906774757277,-0.9946906774757277,-0.10290994190493828,304.6737593585773,-6.600916644636612)"
    ></line><line
      x1="96.2327118028008"
      y1="125.58165062036309"
      x2="109.66853071149583"
      y2="139.0174695290581"
      stroke-linecap="round"
      stroke-width="4"
      stroke="white"
      transform="matrix(0.7185076976239911,0.6955190065376152,-0.6955190065376152,0.7185076976239911,120.9966666919876,-34.36280682270808)"
    ></line><circle
      r="2.5"
      fill="white"
      cx="710.0070338967384"
      cy="109.7521867098857"></circle><line
      x1="667.6630782143164"
      y1="192.962816243996"
      x2="677.9044289429079"
      y2="203.2041669725875"
      stroke-linecap="round"
      stroke-width="4"
      stroke="white"
      transform="matrix(-0.9999287304492783,-0.011938761329991677,0.011938761329991677,-0.9999287304492783,1343.154684394855,404.18506425457684)"
    ></line><line
      x1="711.6078488309348"
      y1="73.14692740304103"
      x2="726.5374968190428"
      y2="88.076575391149"
      stroke-linecap="round"
      stroke-width="4"
      stroke="white"
      transform="matrix(0.636224799763184,-0.7715037291979193,0.7715037291979193,0.636224799763184,199.38853478953445,584.0917966338822)"
    ></line><line
      x1="647.0167069369658"
      y1="172.03105123629402"
      x2="657.0245782016456"
      y2="182.03892250097377"
      stroke-linecap="round"
      stroke-width="4"
      stroke="white"
      transform="matrix(0.16102931901800144,0.9869496230388858,-0.9869496230388858,0.16102931901800144,721.7508325397987,-494.98438021735706)"
    ></line><line
      x1="791.5088496798763"
      y1="186.30170325062886"
      x2="805.011875946415"
      y2="199.80472951716763"
      stroke-linecap="round"
      stroke-width="4"
      stroke="white"
      transform="matrix(-0.6527529502665971,-0.7575708454780011,0.7575708454780011,-0.6527529502665971,1173.0757041460456,923.8080586342386)"
    ></line><line
      x1="135.25884696546171"
      y1="86.30929481494826"
      x2="148.4747839433757"
      y2="99.52523179286226"
      stroke-linecap="round"
      stroke-width="4"
      stroke="white"
      transform="matrix(0.1491589497352145,0.9888132319674366,-0.9888132319674366,0.1491589497352145,212.58392789516785,-61.221960858708)"
    ></line><circle
      r="2.5"
      fill="white"
      cx="30.514992794349897"
      cy="142.0944088863015"></circle><line
      x1="375.24348230836097"
      y1="190.7343556688023"
      x2="387.8113500149939"
      y2="203.3022233754352"
      stroke-linecap="round"
      stroke-width="4"
      stroke="white"
      transform="matrix(-0.40605837743365975,-0.9138471393597201,0.9138471393597201,-0.40605837743365975,356.40519816814594,625.6769520477648)"
    ></line><line
      x1="609.1772017351764"
      y1="197.35998870733545"
      x2="617.603875930286"
      y2="205.78666290244513"
      stroke-linecap="round"
      stroke-width="4"
      stroke="white"
      transform="matrix(-0.547800109260416,-0.8366092518579246,0.8366092518579246,-0.547800109260416,780.7678251368794,825.1634114623936)"
    ></line><circle
      r="2.5"
      fill="white"
      cx="39.650082808943246"
      cy="101.84060835553196"></circle><line
      x1="173.4420849441639"
      y1="132.91451366394065"
      x2="187.36300233511562"
      y2="146.83543105489238"
      stroke-linecap="round"
      stroke-width="4"
      stroke="white"
      transform="matrix(-0.25716672453516387,0.9663670502411882,-0.9663670502411882,-0.25716672453516387,361.9666420016982,1.5110943411261815)"
    ></line><line
      x1="637.5985053859094"
      y1="142.73111163762636"
      x2="648.4848164228404"
      y2="153.61742267455728"
      stroke-linecap="round"
      stroke-width="4"
      stroke="white"
      transform="matrix(-0.9333255330517606,-0.35903126514782374,0.35903126514782374,-0.9333255330517606,1190.0096602086098,517.3411454738143)"
    ></line><line
      x1="202.48787089347366"
      y1="132.26245675938983"
      x2="215.95097621376675"
      y2="145.72556207968293"
      stroke-linecap="round"
      stroke-width="4"
      stroke="white"
      transform="matrix(0.34860156922913943,0.9372710098637328,-0.9372710098637328,0.34860156922913943,266.5602526122458,-105.55482273272767)"
    ></line><circle
      r="2.5"
      fill="white"
      cx="256.4044979282253"
      cy="126.71220714379339"></circle><circle
      r="2.5"
      fill="white"
      cx="496.0778457428286"
      cy="94.85931269065624"></circle><line
      x1="723.4015245215193"
      y1="8.612418724981275"
      x2="739.6665020698609"
      y2="24.87739627332303"
      stroke-linecap="round"
      stroke-width="4"
      stroke="white"
      transform="matrix(-0.8906962589314075,0.45459891588695533,-0.45459891588695533,-0.8906962589314075,1390.7208650594475,-300.8950419159885)"
    ></line><circle
      r="2.5"
      fill="white"
      cx="146.59446004197477"
      cy="164.77953044835402"></circle><line
      x1="85.25374500994455"
      y1="101.41480558171375"
      x2="97.79074362437454"
      y2="113.95180419614374"
      stroke-linecap="round"
      stroke-width="4"
      stroke="white"
      transform="matrix(0.8601242930374561,0.5100845033196132,-0.5100845033196132,0.8601242930374561,67.72932306380122,-31.621799866565283)"
    ></line><line
      x1="615.8394125413276"
      y1="60.25749412372021"
      x2="629.013052991012"
      y2="73.43113457340463"
      stroke-linecap="round"
      stroke-width="4"
      stroke="white"
      transform="matrix(-0.9846460497363889,0.17456275873886937,-0.17456275873886937,-0.9846460497363889,1246.9643048019684,24.009867260724377)"
    ></line><line
      x1="646.5149478962954"
      y1="195.87295801608434"
      x2="655.9329758855725"
      y2="205.29098600536145"
      stroke-linecap="round"
      stroke-width="4"
      stroke="white"
      transform="matrix(0.6128167002257969,-0.79022508940451,0.79022508940451,0.6128167002257969,93.63813967219266,592.2755078378966)"
    ></line><circle
      r="2.5"
      fill="white"
      cx="86.05674806157685"
      cy="40.94705823615955"></circle><circle
      r="2.5"
      fill="white"
      cx="491.01546970783585"
      cy="195.35577278826463"></circle><circle
      r="2.5"
      fill="white"
      cx="797.6160772754945"
      cy="14.371167684237363"></circle><line
      x1="547.8384104068314"
      y1="195.39246644074194"
      x2="557.5767661130035"
      y2="205.130822146914"
      stroke-linecap="round"
      stroke-width="4"
      stroke="white"
      transform="matrix(0.04158271802367613,-0.9991350647243662,0.9991350647243662,0.04158271802367613,329.63608962280574,744.1637811330364)"
    ></line><circle
      r="2.5"
      fill="white"
      cx="505.9114665727919"
      cy="10.776722634832627"></circle><circle
      r="2.5"
      fill="white"
      cx="820.5744431738555"
      cy="48.515584844498036"></circle><circle
      r="2.5"
      fill="white"
      cx="95.86759062901697"
      cy="199.20310877951027"></circle><line
      x1="586.920601287499"
      y1="52.924929576734186"
      x2="600.3648239506356"
      y2="66.36915223987064"
      stroke-linecap="round"
      stroke-width="4"
      stroke="white"
      transform="matrix(0.024838473765704944,-0.999691477517434,0.999691477517434,0.024838473765704944,519.268880786014,651.6250497854162)"
    ></line><line
      x1="634.4577896679228"
      y1="113.69748457724694"
      x2="647.2752446358971"
      y2="126.51493954522124"
      stroke-linecap="round"
      stroke-width="4"
      stroke="white"
      transform="matrix(-0.30201893688884257,0.9533019258139225,-0.9533019258139225,-0.30201893688884257,948.9178237864883,-454.5587207364639)"
    ></line><circle
      r="2.5"
      fill="white"
      cx="772.0329777264692"
      cy="98.36253893226711"></circle><line
      x1="576.2698289311041"
      y1="29.18360969901049"
      x2="588.3954930493418"
      y2="41.30927381724803"
      stroke-linecap="round"
      stroke-width="4"
      stroke="white"
      transform="matrix(-0.4531943318082075,-0.8914117441546933,0.8914117441546933,-0.4531943318082075,814.8234470035344,570.3181110460433)"
    ></line><circle
      r="2.5"
      fill="white"
      cx="162.24538764539724"
      cy="62.74069311879549"></circle><line
      x1="652.0631393450775"
      y1="8.410244583837002"
      x2="662.7646911869675"
      y2="19.11179642572707"
      stroke-linecap="round"
      stroke-width="4"
      stroke="white"
      transform="matrix(0.060211568366325775,0.9981856375619053,-0.9981856375619053,0.060211568366325775,631.5660409878392,-643.2886743354416)"
    ></line><line
      x1="656.298215481407"
      y1="129.28124218390738"
      x2="667.8654784479176"
      y2="140.848505150418"
      stroke-linecap="round"
      stroke-width="4"
      stroke="white"
      transform="matrix(-0.5960082681665555,-0.8029782962677778,0.8029782962677778,-0.5960082681665555,948.2339424419118,747.2020080475329)"
    ></line><line
      x1="678.7567828014892"
      y1="119.93145946946791"
      x2="690.8253886791751"
      y2="132.00006534715382"
      stroke-linecap="round"
      stroke-width="4"
      stroke="white"
      transform="matrix(0.010460354870922886,-0.9999452889913399,0.9999452889913399,0.010460354870922886,551.6690514222526,809.4017237833483)"
    ></line><line
      x1="640.2224152412949"
      y1="73.76964213821363"
      x2="650.8661626036063"
      y2="84.41338950052501"
      stroke-linecap="round"
      stroke-width="4"
      stroke="white"
      transform="matrix(-0.15929305869354857,-0.9872313414048673,0.9872313414048673,-0.15929305869354857,670.2933782435578,728.9917947587423)"
    ></line><line
      x1="81.90281623764007"
      y1="73.29037207304476"
      x2="94.59014703257752"
      y2="85.97770286798222"
      stroke-linecap="round"
      stroke-width="4"
      stroke="white"
      transform="matrix(0.569557896371466,0.8219512167281647,-0.8219512167281647,0.569557896371466,103.44029533516975,-38.25646153543224)"
    ></line><line
      x1="5.810339472526865"
      y1="152.99839979335695"
      x2="17.343133441852203"
      y2="164.53119376268228"
      stroke-linecap="round"
      stroke-width="4"
      stroke="white"
      transform="matrix(0.8224641712015143,-0.5688169187795017,0.5688169187795017,0.8224641712015143,-88.25281500505193,34.771483007933995)"
    ></line><line
      x1="764.7654636030363"
      y1="123.39734536637182"
      x2="779.6755360991322"
      y2="138.30741786246756"
      stroke-linecap="round"
      stroke-width="4"
      stroke="white"
      transform="matrix(-0.3186424672974359,-0.9478749801712262,0.9478749801712262,-0.3186424672974359,894.2510319553672,904.5159898968931)"
    ></line><circle
      r="2.5"
      fill="white"
      cx="722.9301443856442"
      cy="130.1136593804376"></circle><line
      x1="542.0022399821357"
      y1="65.79791276043198"
      x2="553.1014819465986"
      y2="76.89715472489493"
      stroke-linecap="round"
      stroke-width="4"
      stroke="white"
      transform="matrix(0.809951618707202,-0.5864966967968219,0.5864966967968219,0.809951618707202,62.21625532457199,334.696852256242)"
    ></line><circle
      r="2.5"
      fill="white"
      cx="726.1012631508295"
      cy="201.22260358973776"></circle><line
      x1="796.1213451755941"
      y1="77.57297713526334"
      x2="809.2157558123233"
      y2="90.6673877719925"
      stroke-linecap="round"
      stroke-width="4"
      stroke="white"
      transform="matrix(-0.708968457846227,-0.7052401901332217,0.7052401901332217,-0.708968457846227,1312.4102984611768,709.8328575874461)"
    ></line><line
      x1="558.9028036670193"
      y1="46.60170514459663"
      x2="571.1315990569813"
      y2="58.830500534558546"
      stroke-linecap="round"
      stroke-width="4"
      stroke="white"
      transform="matrix(0.3155271865560084,0.9489165371854629,-0.9489165371854629,0.3155271865560084,436.7621022162966,-500.07143711918604)"
    ></line><line
      x1="694.4736765762636"
      y1="35.22311002820625"
      x2="708.5050250534739"
      y2="49.25445850541644"
      stroke-linecap="round"
      stroke-width="4"
      stroke="white"
      transform="matrix(-0.9107346965025558,-0.4129919037782673,0.4129919037782673,-0.9107346965025558,1322.9157629154377,370.41653351095823)"
    ></line>
    <!-- Text -->
    <path
      d="M262.358461,88 C263.920961,88 264.702211,87.21875 264.702211,85.65625 L264.702211,85.65625 L264.702211,43.46875 C264.702211,41.90625 263.920961,41.125 262.358461,41.125 C260.795961,41.125 260.014711,41.90625 260.014711,43.46875 L260.014711,43.46875 L260.014711,62.21875 L242.827211,62.21875 L242.827211,43.46875 C242.827211,41.90625 242.045961,41.125 240.483461,41.125 C238.920961,41.125 238.139711,41.90625 238.139711,43.46875 L238.139711,43.46875 L238.139711,85.65625 C238.139711,87.21875 238.920961,88 240.483461,88 C242.045961,88 242.827211,87.21875 242.827211,85.65625 L242.827211,85.65625 L242.827211,66.90625 L260.014711,66.90625 L260.014711,85.65625 C260.014711,87.21875 260.795961,88 262.358461,88 Z M289.306987,88 C292.306987,88 295.17157,87.28125 297.900737,85.84375 C300.775737,84.3645833 302.931987,82.375 304.369487,79.875 C304.619487,79.4166667 304.744487,78.9895833 304.744487,78.59375 C304.744487,77.96875 304.494487,77.421875 303.994487,76.953125 C303.494487,76.484375 302.931987,76.25 302.306987,76.25 C301.619487,76.25 300.98407,76.6354167 300.400737,77.40625 C299.817404,78.1770833 299.379904,78.75 299.088237,79.125 C296.588237,81.9166667 293.32782,83.3125 289.306987,83.3125 C285.536154,83.3125 282.369487,81.9895833 279.806987,79.34375 L279.806987,79.34375 L303.494487,66.625 C304.306987,66.1875 304.713237,65.5520833 304.713237,64.71875 C304.713237,63.03125 303.431987,61.25 300.869487,59.375 C298.806987,57.875 296.73407,56.78125 294.650737,56.09375 C292.79657,55.4895833 291.01532,55.1875 289.306987,55.1875 C284.619487,55.1875 280.57782,56.7395833 277.181987,59.84375 C273.661154,63.03125 271.900737,66.9479167 271.900737,71.59375 C271.900737,76.21875 273.661154,80.1354167 277.181987,83.34375 C280.57782,86.4479167 284.619487,88 289.306987,88 Z M277.275737,75.40625 C276.817404,74.1979167 276.588237,72.9270833 276.588237,71.59375 C276.588237,68.2604167 277.89032,65.4479167 280.494487,63.15625 C282.994487,60.96875 285.931987,59.875 289.306987,59.875 C293.14032,59.875 296.32782,61.1979167 298.869487,63.84375 L298.869487,63.84375 L277.275737,75.40625 Z M324.411763,102.0625 C328.286763,102.0625 331.599263,100.6875 334.349263,97.9375 C337.099263,95.1875 338.474263,91.875 338.474263,88 L338.474263,88 L338.474263,57.53125 C338.474263,55.96875 337.693013,55.1875 336.130513,55.1875 C334.568013,55.1875 333.786763,55.96875 333.786763,57.53125 L333.786763,57.53125 L333.786763,73.96875 C333.786763,76.53125 332.870096,78.7291667 331.036763,80.5625 C329.20343,82.3958333 326.995096,83.3125 324.411763,83.3125 C321.82843,83.3125 319.620096,82.3958333 317.786763,80.5625 C315.95343,78.7291667 315.036763,76.5208333 315.036763,73.9375 L315.036763,73.9375 L315.036763,57.53125 C315.036763,55.96875 314.255513,55.1875 312.693013,55.1875 C311.130513,55.1875 310.349263,55.96875 310.349263,57.53125 L310.349263,57.53125 L310.349263,73.9375 C310.349263,77.8125 311.724263,81.125 314.474263,83.875 C317.224263,86.625 320.536763,88 324.411763,88 C327.995096,88 331.120096,86.8020833 333.786763,84.40625 L333.786763,84.40625 L333.786763,88 C333.786763,90.5833333 332.870096,92.7916667 331.036763,94.625 C329.20343,96.4583333 326.995096,97.375 324.411763,97.375 C321.349263,97.375 318.651346,95.8229167 316.318013,92.71875 C315.713846,91.90625 315.057596,91.5 314.349263,91.5 C313.724263,91.5 313.161763,91.7395833 312.661763,92.21875 C312.161763,92.6979167 311.911763,93.25 311.911763,93.875 C311.911763,94.25 312.026346,94.65625 312.255513,95.09375 C313.42218,97.1979167 315.151346,98.8958333 317.443013,100.1875 C319.630513,101.4375 321.95343,102.0625 324.411763,102.0625 Z"
      id="Hey"
      fill="#FFFFFF"
      fill-rule="nonzero"></path>
    <path
      d="M335.580896,171 C337.143396,171 337.924646,170.21875 337.924646,168.65625 C337.924646,167.09375 337.143396,166.3125 335.580896,166.3125 L335.580896,166.3125 L328.549646,166.3125 L328.549646,128.8125 L335.580896,128.8125 C337.143396,128.8125 337.924646,128.03125 337.924646,126.46875 C337.924646,124.90625 337.143396,124.125 335.580896,124.125 L335.580896,124.125 L316.830896,124.125 C315.268396,124.125 314.487146,124.90625 314.487146,126.46875 C314.487146,128.03125 315.268396,128.8125 316.830896,128.8125 L316.830896,128.8125 L323.862146,128.8125 L323.862146,166.3125 L316.830896,166.3125 C315.268396,166.3125 314.487146,167.09375 314.487146,168.65625 C314.487146,170.21875 315.268396,171 316.830896,171 L316.830896,171 L335.580896,171 Z M361.029422,138.8125 C361.591922,138.791667 362.144006,138.541667 362.685672,138.0625 C365.894006,135.145833 367.498172,131.28125 367.498172,126.46875 C367.498172,124.90625 366.716922,124.125 365.154422,124.125 C363.591922,124.125 362.810672,124.90625 362.810672,126.46875 C362.789839,129.364583 361.633589,132.135417 359.341922,134.78125 C358.862756,135.34375 358.623172,135.885417 358.623172,136.40625 C358.623172,137.052083 358.867964,137.614583 359.357547,138.09375 C359.847131,138.572917 360.404422,138.8125 361.029422,138.8125 Z M414.040448,171 C415.602948,171 416.384198,170.21875 416.384198,168.65625 L416.384198,168.65625 L416.384198,147.5625 C416.384198,144.979167 415.467531,142.770833 413.634198,140.9375 C411.800865,139.104167 409.592531,138.1875 407.009198,138.1875 C404.196698,138.1875 401.852948,139.25 399.977948,141.375 C398.102948,139.25 395.759198,138.1875 392.946698,138.1875 C391.175865,138.1875 389.550865,138.65625 388.071698,139.59375 C387.717531,138.65625 386.998781,138.1875 385.915448,138.1875 C384.352948,138.1875 383.571698,138.96875 383.571698,140.53125 L383.571698,140.53125 L383.571698,168.65625 C383.571698,170.21875 384.352948,171 385.915448,171 C387.477948,171 388.259198,170.21875 388.259198,168.65625 L388.259198,168.65625 L388.259198,147.5625 C388.259198,146.270833 388.717531,145.166667 389.634198,144.25 C390.550865,143.333333 391.655031,142.875 392.946698,142.875 C394.238365,142.875 395.342531,143.333333 396.259198,144.25 C397.175865,145.166667 397.634198,146.270833 397.634198,147.5625 L397.634198,147.5625 L397.634198,168.65625 C397.634198,170.21875 398.415448,171 399.977948,171 C401.540448,171 402.321698,170.21875 402.321698,168.65625 L402.321698,168.65625 L402.321698,147.5625 C402.321698,146.270833 402.780031,145.166667 403.696698,144.25 C404.613365,143.333333 405.717531,142.875 407.009198,142.875 C408.300865,142.875 409.405031,143.333333 410.321698,144.25 C411.238365,145.166667 411.696698,146.270833 411.696698,147.5625 L411.696698,147.5625 L411.696698,168.65625 C411.696698,170.21875 412.477948,171 414.040448,171 Z M487.78125,171 C489.364583,171 490.15625,170.239583 490.15625,168.71875 C490.15625,168.59375 490.145833,168.458333 490.125,168.3125 L490.125,168.3125 L484.53125,126.4375 C484.34375,124.895833 483.541667,124.125 482.125,124.125 C480.979167,124.125 480.21875,124.791667 479.84375,126.125 L479.84375,126.125 L473.75,149.875 L467.65625,126.125 C467.28125,124.791667 466.5,124.125 465.3125,124.125 C463.9375,124.125 463.15625,124.895833 462.96875,126.4375 L462.96875,126.4375 L457.375,168.3125 C457.354167,168.458333 457.34375,168.59375 457.34375,168.71875 C457.34375,170.239583 458.135417,171 459.71875,171 C461.072917,171 461.833333,170.333333 462,169 L462,169 L466.03125,138.75 L471.40625,159.53125 C471.78125,160.927083 472.5625,161.625 473.75,161.625 C474.9375,161.625 475.71875,160.927083 476.09375,159.53125 L476.09375,159.53125 L481.46875,138.75 L485.5,169 C485.6875,170.333333 486.447917,171 487.78125,171 Z M523.136026,171 C524.698526,171 525.479776,170.21875 525.479776,168.65625 L525.479776,168.65625 L525.479776,149.90625 C525.479776,146.28125 523.719359,143.34375 520.198526,141.09375 C517.136026,139.15625 513.688109,138.1875 509.854776,138.1875 C507.813109,138.1875 505.521443,138.583333 502.979776,139.375 C499.708943,140.416667 498.073526,141.697917 498.073526,143.21875 C498.073526,143.864583 498.307901,144.432292 498.776651,144.921875 C499.245401,145.411458 499.792276,145.65625 500.417276,145.65625 C500.813109,145.65625 501.281859,145.5 501.823526,145.1875 C504.469359,143.645833 507.146443,142.875 509.854776,142.875 C514.563109,142.875 517.886026,144.291667 519.823526,147.125 C520.469359,148.041667 520.792276,148.96875 520.792276,149.90625 L520.792276,149.90625 L520.792276,150.84375 C517.708943,148.65625 514.063109,147.5625 509.854776,147.5625 C506.000609,147.5625 502.552693,148.53125 499.511026,150.46875 C495.990193,152.739583 494.229776,155.677083 494.229776,159.28125 C494.229776,162.90625 495.990193,165.84375 499.511026,168.09375 C502.552693,170.03125 506.000609,171 509.854776,171 C514.063109,171 517.708943,169.90625 520.792276,167.71875 C520.750609,169.90625 521.531859,171 523.136026,171 Z M509.854776,166.3125 C505.021443,166.3125 501.656859,164.833333 499.761026,161.875 C499.198526,161 498.917276,160.135417 498.917276,159.28125 C498.917276,158.427083 499.198526,157.5625 499.761026,156.6875 C501.656859,153.729167 505.021443,152.25 509.854776,152.25 C511.500609,152.25 513.031859,152.46875 514.448526,152.90625 C516.073526,153.385417 517.479776,154.145833 518.667276,155.1875 C520.083943,156.4375 520.792276,157.802083 520.792276,159.28125 C520.792276,160.760417 520.083943,162.125 518.667276,163.375 C517.500609,164.416667 516.094359,165.177083 514.448526,165.65625 C513.031859,166.09375 511.500609,166.3125 509.854776,166.3125 Z M536.584552,171 C538.147052,171 538.928302,170.21875 538.928302,168.65625 L538.928302,168.65625 L538.928302,154.59375 C538.928302,151.364583 540.074135,148.604167 542.365802,146.3125 C544.657469,144.020833 547.417885,142.875 550.647052,142.875 C553.876219,142.875 556.928302,144.322917 559.803302,147.21875 C560.365802,147.822917 560.938719,148.125 561.522052,148.125 C562.167885,148.125 562.735594,147.890625 563.225177,147.421875 C563.71476,146.953125 563.959552,146.40625 563.959552,145.78125 C563.959552,145.34375 563.761635,144.84375 563.365802,144.28125 C562.115802,142.427083 560.240802,140.9375 557.740802,139.8125 C555.386635,138.729167 553.022052,138.1875 550.647052,138.1875 C546.042885,138.1875 542.136635,139.833333 538.928302,143.125 C538.949135,141.375 538.917885,140.3125 538.834552,139.9375 C538.522052,138.770833 537.772052,138.1875 536.584552,138.1875 C535.022052,138.1875 534.240802,138.96875 534.240802,140.53125 L534.240802,140.53125 L534.240802,168.65625 C534.240802,170.21875 535.022052,171 536.584552,171 Z M598.501828,171.03125 C599.105994,171.03125 599.647661,170.78125 600.126828,170.28125 C600.605994,169.78125 600.845578,169.21875 600.845578,168.59375 C600.845578,167.802083 600.501828,167.177083 599.814328,166.71875 L599.814328,166.71875 L582.283078,154.59375 L599.814328,142.46875 C600.501828,142.010417 600.845578,141.385417 600.845578,140.59375 C600.845578,139.96875 600.611203,139.40625 600.142453,138.90625 C599.673703,138.40625 599.126828,138.15625 598.501828,138.15625 C598.022661,138.15625 597.564328,138.302083 597.126828,138.59375 L597.126828,138.59375 L577.126828,152.46875 C576.355994,152.989583 575.918494,153.552083 575.814328,154.15625 L575.814328,154.15625 L575.814328,126.46875 C575.814328,124.90625 575.033078,124.125 573.470578,124.125 C571.908078,124.125 571.126828,124.90625 571.126828,126.46875 L571.126828,126.46875 L571.126828,168.65625 C571.126828,170.21875 571.908078,171 573.470578,171 C575.033078,171 575.814328,170.21875 575.814328,168.65625 L575.814328,168.65625 L575.814328,155.03125 C575.897661,155.635417 576.335161,156.197917 577.126828,156.71875 L577.126828,156.71875 L597.126828,170.59375 C597.564328,170.885417 598.022661,171.03125 598.501828,171.03125 Z"
      id="ImMark"
      fill="#FFFFFF"
      fill-rule="nonzero"></path>
  </mask>
  <rect
    width="846"
    height="282"
    mask="url(#lines-dots)"
    fill="url(#linearGradient-1)"></rect>
  <g class="hand-outer" fill-rule="nonzero">
    <g class="hand">
      <path
        d="M8.9842768,16.5793836 C10.7364909,15.364157 13.3778604,15.5972142 14.951125,16.8864271 L13.1467173,14.2839557 C11.6946165,12.2289836 12.2146885,10.0056925 14.2875205,8.56295781 C16.3603525,7.12577212 22.2339978,10.9897115 22.2339978,10.9897115 C20.7688486,8.91439318 21.042865,6.28417689 23.1343376,4.8284946 C25.2258101,3.37836129 28.1113712,3.8796191 29.5765204,5.95863676 L49,33.1856296 L46.5245316,57 L25.8651819,49.5236749 L7.84533764,23.0125005 C6.36714001,20.9242345 6.87789178,18.0443141 8.9842768,16.5793836 Z"
        id="Path"
        fill="#EF9645"></path>
      <path
        d="M5.70091462,32.5413205 C5.70091462,32.5413205 3.60498929,29.453054 6.66185565,27.3361877 C9.71501895,25.2193214 11.8090927,28.3057162 11.8090927,28.3057162 L21.531446,42.6390161 C21.8665719,42.0737697 22.2331736,41.5160101 22.6423605,40.9657372 L9.14845256,21.0754293 C9.14845256,21.0754293 7.05437876,17.9890344 10.1093936,15.8721681 C13.1625569,13.7553018 15.2566307,16.8416966 15.2566307,16.8416966 L27.9488287,35.5528482 C28.4209673,35.1635395 28.9042151,34.7723591 29.4022751,34.3886654 L14.6882128,12.6940612 C14.6882128,12.6940612 12.594139,9.60766633 15.6491538,7.49080003 C18.7023171,5.37393372 20.7963909,8.46032854 20.7963909,8.46032854 L35.5104532,30.1511894 C36.0510983,29.8161593 36.5861888,29.5260494 37.1231308,29.2190944 L23.3700095,8.9450928 C23.3700095,8.9450928 21.2759357,5.85869798 24.329099,3.74183167 C27.3822623,1.62496536 29.4763361,4.71136018 29.4763361,4.71136018 L44.0182067,26.1495447 L46.2289265,29.4100054 C37.067585,35.762476 36.1955172,47.7131315 41.4297759,55.4300544 C42.4758871,56.9741877 44.0033945,55.9166903 44.0033945,55.9166903 C37.7211731,46.6537625 39.6393521,36.2453686 48.802545,29.8947697 L46.1011713,16.2277867 C46.1011713,16.2277867 45.0920907,12.6266808 48.6525716,11.6047453 C52.214904,10.5846816 53.2258362,14.1857875 53.2258362,14.1857875 L56.3456544,23.5516575 C57.5824725,27.265064 58.8989062,30.9653687 60.6411904,34.4654041 C65.56069,44.3478569 62.6223212,56.6297992 53.3461853,63.0627519 C43.2276059,70.0759243 29.394869,67.4686787 22.4553565,57.2418374 L5.70091462,32.5413205 Z"
        id="Path"
        fill="#FFDC5D"></path>
      <path
        d="M22.3594193,59.6251182 C14.9062795,59.6251182 7.37488181,52.0937205 7.37488181,44.6405807 C7.37488181,43.6101841 6.6202514,42.7772957 5.58985483,42.7772957 C4.55945826,42.7772957 3.64831192,43.6101841 3.64831192,44.6405807 C3.64831192,55.8202903 11.1797097,63.3516881 22.3594193,63.3516881 C23.3898159,63.3516881 24.2227043,62.4405417 24.2227043,61.4101452 C24.2227043,60.3797486 23.3898159,59.6251182 22.3594193,59.6251182 Z"
        id="Path"
        fill="#5DADEC"></path>
      <path
        d="M13.0429946,63.2734301 C7.45313977,63.2734301 3.72656989,59.5468602 3.72656989,53.9570054 C3.72656989,52.9266088 2.89368152,52.0937205 1.86328494,52.0937205 C0.83288837,52.0937205 1.77635684e-14,52.9266088 1.77635684e-14,53.9570054 C1.77635684e-14,61.4101452 5.58985483,67 13.0429946,67 C14.0733912,67 14.9062795,66.1671116 14.9062795,65.1367151 C14.9062795,64.1063185 14.0733912,63.2734301 13.0429946,63.2734301 Z M44.7188386,3.64831192 C43.6903054,3.64831192 42.8555537,4.48306357 42.8555537,5.51159686 C42.8555537,6.54013015 43.6903054,7.37488181 44.7188386,7.37488181 C52.1719784,7.37488181 59.6251182,14.0622115 59.6251182,22.2811614 C59.6251182,23.3096946 60.4598698,24.1444463 61.4884031,24.1444463 C62.5169364,24.1444463 63.3516881,23.3096946 63.3516881,22.2811614 C63.3516881,12.0070082 55.8985483,3.64831192 44.7188386,3.64831192 Z"
        id="Shape"
        fill="#5DADEC"></path>
      <path
        d="M54.0352634,0 C53.0067301,0 52.1719784,0.756493687 52.1719784,1.78502698 C52.1719784,2.81356026 53.0067301,3.72656989 54.0352634,3.72656989 C59.6251182,3.72656989 63.2734301,7.87237889 63.2734301,12.9647366 C63.2734301,13.9932699 64.1845765,14.8280216 65.214973,14.8280216 C66.2453696,14.8280216 67,13.9932699 67,12.9647366 C67,5.81531231 61.4884031,0 54.0352634,0 Z"
        id="Path"
        fill="#5DADEC"></path>
    </g>
  </g>
</svg>
